<?xml version="1.0" encoding="UTF-8" standalone="no"?>
<!DOCTYPE svg PUBLIC "-//W3C//DTD SVG 1.1//EN"
 "http://www.w3.org/Graphics/SVG/1.1/DTD/svg11.dtd">
<!-- Generated by graphviz version 2.26.3 (20100126.1600)
 -->
<!-- Title: G Pages: 1 -->
<svg width="225pt" height="388pt"
 viewBox="0.00 0.00 225.00 388.00" xmlns="http://www.w3.org/2000/svg" xmlns:xlink="http://www.w3.org/1999/xlink">
<g id="graph1" class="graph" transform="scale(1 1) rotate(0) translate(4 384)">
<title>G</title>
<polygon fill="white" stroke="white" points="-4,5 -4,-384 222,-384 222,5 -4,5"/>
<!-- n1 -->
<g id="node1" class="node"><title>n1</title>
<a xlink:href="/nodes/1" xlink:title="node1">
<polygon fill="#00477f" stroke="#757116" points="107,-380 53,-380 53,-344 107,-344 107,-380"/>
<text text-anchor="middle" x="80" y="-358.4" font-family="Trebuchet MS" font-size="14.00" fill="White">node1</text>
</a>
</g>
<!-- n2 -->
<g id="node2" class="node"><title>n2</title>
<a xlink:href="/nodes/2" xlink:title="node2">
<polygon fill="#757116" stroke="#757116" points="54,-294 2.4869e-14,-294 0,-258 54,-258 54,-294"/>
<text text-anchor="middle" x="27" y="-272.4" font-family="Trebuchet MS" font-size="14.00" fill="White">node2</text>
</a>
</g>
<!-- n1&#45;&gt;n2 -->
<g id="edge2" class="edge"><title>n1&#45;&gt;n2</title>
<path fill="none" stroke="#666666" d="M52.8396,-353.165C40.1777,-347.526 26.3171,-338.815 19,-326 15.224,-319.387 14.9194,-311.524 16.1693,-304.015"/>
<polygon fill="#666666" stroke="#666666" points="18.6572,-294.144 20.5766,-304.941 17.4351,-298.993 16.213,-303.841 16.213,-303.841 16.213,-303.841 17.4351,-298.993 11.8495,-302.741 18.6572,-294.144 18.6572,-294.144"/>
<text text-anchor="middle" x="73.5" y="-316.1" font-family="Trebuchet MS" font-size="11.00">Objective &#45;&gt; Strategy</text>
</g>
<!-- n3 -->
<g id="node3" class="node"><title>n3</title>
<a xlink:href="/nodes/3" xlink:title="node3">
<polygon fill="#757116" stroke="#757116" points="119,-208 65,-208 65,-172 119,-172 119,-208"/>
<text text-anchor="middle" x="92" y="-186.4" font-family="Trebuchet MS" font-size="14.00" fill="White">node3</text>
</a>
</g>
<!-- n1&#45;&gt;n3 -->
<g id="edge12" class="edge"><title>n1&#45;&gt;n3</title>
<path fill="none" stroke="#666666" d="M107.066,-348.222C115.331,-342.546 123.435,-335.131 128,-326 147.876,-286.248 145.008,-267.061 128,-226 126.483,-222.338 124.393,-218.854 121.977,-215.599"/>
<polygon fill="#666666" stroke="#666666" points="115.441,-208.005 125.375,-212.649 118.703,-211.795 121.965,-215.584 121.965,-215.584 121.965,-215.584 118.703,-211.795 118.554,-218.52 115.441,-208.005 115.441,-208.005"/>
<text text-anchor="middle" x="179" y="-273.1" font-family="Trebuchet MS" font-size="11.00">Parent &#45;&gt; Child</text>
</g>
<!-- n2&#45;&gt;n3 -->
<g id="edge4" class="edge"><title>n2&#45;&gt;n3</title>
<path fill="none" stroke="#666666" d="M34.0616,-257.941C38.4196,-247.993 44.5916,-235.729 52,-226 54.8902,-222.205 58.2189,-218.491 61.6961,-214.977"/>
<polygon fill="#666666" stroke="#666666" points="68.9493,-208.085 64.8003,-218.235 65.3248,-211.529 61.7004,-214.973 61.7004,-214.973 61.7004,-214.973 65.3248,-211.529 58.6004,-211.711 68.9493,-208.085 68.9493,-208.085"/>
<text text-anchor="middle" x="90" y="-230.1" font-family="Trebuchet MS" font-size="11.00">Parent &#45;&gt; Child</text>
</g>
<!-- n4 -->
<g id="node4" class="node"><title>n4</title>
<a xlink:href="/nodes/4" xlink:title="node4">
<polygon fill="#757116" stroke="#757116" points="119,-122 65,-122 65,-86 119,-86 119,-122"/>
<text text-anchor="middle" x="92" y="-100.4" font-family="Trebuchet MS" font-size="14.00" fill="White">node4</text>
</a>
</g>
<!-- n3&#45;&gt;n4 -->
<g id="edge6" class="edge"><title>n3&#45;&gt;n4</title>
<path fill="none" stroke="#666666" d="M92,-171.762C92,-160.36 92,-145.434 92,-132.494"/>
<polygon fill="#666666" stroke="#666666" points="92,-122.212 96.5001,-132.212 92,-127.212 92.0001,-132.212 92.0001,-132.212 92.0001,-132.212 92,-127.212 87.5001,-132.212 92,-122.212 92,-122.212"/>
<text text-anchor="middle" x="130" y="-144.1" font-family="Trebuchet MS" font-size="11.00">Parent &#45;&gt; Child</text>
</g>
<!-- n5 -->
<g id="node5" class="node"><title>n5</title>
<a xlink:href="/nodes/5" xlink:title="node5">
<polygon fill="#757116" stroke="#757116" points="70,-36 16,-36 16,-1.77636e-14 70,-3.55271e-15 70,-36"/>
<text text-anchor="middle" x="43" y="-14.4" font-family="Trebuchet MS" font-size="14.00" fill="White">node5</text>
</a>
</g>
<!-- n4&#45;&gt;n5 -->
<g id="edge8" class="edge"><title>n4&#45;&gt;n5</title>
<path fill="none" stroke="#666666" d="M64.7854,-89.9948C56.6164,-84.338 48.6089,-76.9918 44,-68 40.6084,-61.383 39.3741,-53.5976 39.2333,-46.166"/>
<polygon fill="#666666" stroke="#666666" points="39.6514,-36.0544 43.7343,-46.2318 39.4448,-41.0502 39.2381,-46.0459 39.2381,-46.0459 39.2381,-46.0459 39.4448,-41.0502 34.742,-45.8599 39.6514,-36.0544 39.6514,-36.0544"/>
<text text-anchor="middle" x="82" y="-58.1" font-family="Trebuchet MS" font-size="11.00">Parent &#45;&gt; Child</text>
</g>
<!-- n13 -->
<g id="node6" class="node"><title>n13</title>
<a xlink:href="/nodes/13" xlink:title="node 55">
<polygon fill="#757116" stroke="#757116" points="175,-36 109,-36 109,-1.77636e-14 175,-3.55271e-15 175,-36"/>
<text text-anchor="middle" x="142" y="-14.4" font-family="Trebuchet MS" font-size="14.00" fill="White">node 55</text>
</a>
</g>
<!-- n4&#45;&gt;n13 -->
<g id="edge10" class="edge"><title>n4&#45;&gt;n13</title>
<path fill="none" stroke="#666666" d="M107.447,-85.94C111.805,-80.3867 116.35,-74.1203 120,-68 124.188,-60.9774 128.051,-53.0137 131.332,-45.5393"/>
<polygon fill="#666666" stroke="#666666" points="135.289,-36.1158 135.566,-47.0781 133.353,-40.7258 131.417,-45.3359 131.417,-45.3359 131.417,-45.3359 133.353,-40.7258 127.268,-43.5937 135.289,-36.1158 135.289,-36.1158"/>
<text text-anchor="middle" x="165" y="-58.1" font-family="Trebuchet MS" font-size="11.00">Parent &#45;&gt; Child</text>
</g>
</g>
</svg>
